<svg width="30" height="30" viewBox="0 0 30 30" fill="none" xmlns="http://www.w3.org/2000/svg">
<rect width="30" height="30" rx="15" fill="black"/>
<path d="M11.514 17.547C11.6093 17.547 11.6827 17.591 11.734 17.679C11.7927 17.767 11.822 17.888 11.822 18.042C11.822 18.328 11.7523 18.5553 11.613 18.724C11.2023 19.2153 10.8027 19.56 10.414 19.758C10.0327 19.956 9.57067 20.055 9.028 20.055C8.64667 20.055 8.29467 20.0073 7.972 19.912C7.64933 19.8167 7.257 19.6737 6.795 19.483C6.377 19.2997 5.97367 19.1493 5.585 19.032C5.211 19.714 4.65 20.055 3.902 20.055C3.49133 20.055 3.165 19.9633 2.923 19.78C2.67367 19.5893 2.549 19.3473 2.549 19.054C2.549 18.6947 2.72133 18.3977 3.066 18.163C3.41067 17.921 3.869 17.8 4.441 17.8H4.584L4.782 14.599C4.826 13.8657 4.958 13.2607 5.178 12.784C5.398 12.3073 5.70233 11.9003 6.091 11.563C6.42833 11.2697 6.81333 11.0497 7.246 10.903C7.67867 10.749 8.137 10.672 8.621 10.672C9.413 10.672 10.0217 10.8773 10.447 11.288C10.8723 11.6987 11.085 12.234 11.085 12.894C11.085 13.3413 11.0043 13.7043 10.843 13.983C10.6817 14.2543 10.458 14.39 10.172 14.39C9.96667 14.39 9.80533 14.3423 9.688 14.247C9.57067 14.1443 9.512 14.0013 9.512 13.818C9.512 13.752 9.52667 13.631 9.556 13.455C9.6 13.2497 9.622 13.0663 9.622 12.905C9.622 12.597 9.53033 12.355 9.347 12.179C9.171 11.9957 8.89967 11.904 8.533 11.904C7.88767 11.904 7.389 12.1167 7.037 12.542C6.685 12.96 6.46133 13.62 6.366 14.522L6.113 17.019C6.07633 17.371 6.02867 17.6753 5.97 17.932C6.43933 18.0127 7.026 18.141 7.73 18.317C8.14067 18.4197 8.456 18.493 8.676 18.537C8.896 18.581 9.09033 18.603 9.259 18.603C9.68433 18.603 10.0473 18.5333 10.348 18.394C10.656 18.2473 10.9457 18.0163 11.217 17.701C11.305 17.5983 11.404 17.547 11.514 17.547ZM18.8274 11.563C18.8274 11.783 18.7797 11.948 18.6844 12.058C18.5964 12.168 18.4497 12.223 18.2444 12.223C18.2297 12.377 18.1967 12.6447 18.1454 13.026C18.072 13.5393 18.0317 13.8253 18.0244 13.884C17.3717 18.746 16.0114 21.177 13.9434 21.177C13.3347 21.177 12.858 21.0047 12.5134 20.66C12.176 20.3153 12.0074 19.8827 12.0074 19.362C12.0074 18.4307 12.4034 17.6093 13.1954 16.898C13.9874 16.1793 15.0287 15.5853 16.3194 15.116C16.4 14.5953 16.4624 14.1297 16.5064 13.719L16.7044 12.058C16.2644 12.014 15.8537 11.992 15.4724 11.992C14.453 11.992 13.7014 12.091 13.2174 12.289C12.7334 12.487 12.4914 12.8097 12.4914 13.257C12.4914 13.477 12.5647 13.7153 12.7114 13.972C12.7554 14.0453 12.7774 14.1223 12.7774 14.203C12.7774 14.357 12.6967 14.4963 12.5354 14.621C12.3814 14.7383 12.2127 14.797 12.0294 14.797C11.7947 14.797 11.615 14.698 11.4904 14.5C11.285 14.1627 11.1824 13.7703 11.1824 13.323C11.1824 11.563 12.7224 10.683 15.8024 10.683C16.697 10.683 17.4964 10.771 18.2004 10.947C18.6184 11.0497 18.8274 11.255 18.8274 11.563ZM14.0864 20C14.4457 20 14.805 19.7287 15.1644 19.186C15.5237 18.6433 15.839 17.6937 16.1104 16.337C14.321 17.1217 13.4264 18.0823 13.4264 19.219C13.4264 19.4683 13.485 19.6627 13.6024 19.802C13.7197 19.934 13.881 20 14.0864 20ZM21.8762 20.055C21.3702 20.055 20.9118 19.9303 20.5012 19.681C20.0978 19.4317 19.7788 19.0723 19.5442 18.603C19.3095 18.1263 19.1922 17.5653 19.1922 16.92C19.1922 15.8053 19.4305 14.775 19.9072 13.829C20.3838 12.8757 21.0878 12.113 22.0192 11.541C22.9505 10.9617 24.0688 10.672 25.3742 10.672C25.7115 10.672 26.0708 10.6977 26.4522 10.749C26.8408 10.8003 27.1928 10.8773 27.5082 10.98C27.7135 11.0387 27.8162 11.1853 27.8162 11.42C27.8162 11.6107 27.7428 11.7903 27.5962 11.959C27.4568 12.1277 27.2918 12.212 27.1012 12.212C27.0425 12.212 26.9985 12.2083 26.9692 12.201C26.5878 12.113 26.2615 12.0507 25.9902 12.014C25.7188 11.97 25.4328 11.948 25.1322 11.948C24.2008 11.948 23.4088 12.1753 22.7562 12.63C22.1035 13.0773 21.6158 13.6713 21.2932 14.412C20.9705 15.1527 20.8092 15.952 20.8092 16.81C20.8092 17.4333 20.9302 17.9173 21.1722 18.262C21.4215 18.5993 21.7442 18.768 22.1402 18.768C22.5875 18.768 22.9798 18.5847 23.3172 18.218C23.6545 17.8513 23.9625 17.2573 24.2412 16.436C24.5198 15.6147 24.7948 14.5 25.0662 13.092C25.1102 12.8867 25.1982 12.7473 25.3302 12.674C25.4622 12.6007 25.6382 12.564 25.8582 12.564C26.3788 12.564 26.6392 12.7327 26.6392 13.07C26.6392 13.1287 26.6282 13.202 26.6062 13.29C26.4155 14.0013 26.2395 14.7897 26.0782 15.655C25.9242 16.513 25.8472 17.1657 25.8472 17.613C25.8472 18.009 25.9058 18.2987 26.0232 18.482C26.1405 18.658 26.3202 18.746 26.5622 18.746C26.7968 18.746 27.0205 18.669 27.2332 18.515C27.4458 18.3537 27.7135 18.0823 28.0362 17.701C28.1242 17.5983 28.2232 17.547 28.3332 17.547C28.4285 17.547 28.5018 17.591 28.5532 17.679C28.6118 17.767 28.6412 17.888 28.6412 18.042C28.6412 18.328 28.5715 18.5553 28.4322 18.724C28.0728 19.1567 27.7208 19.4867 27.3762 19.714C27.0315 19.9413 26.6098 20.055 26.1112 20.055C25.5978 20.055 25.1835 19.9083 24.8682 19.615C24.5528 19.3143 24.3548 18.8927 24.2742 18.35C23.7315 19.4867 22.9322 20.055 21.8762 20.055Z" fill="white"/>
</svg>
